<?xml version="1.0" encoding="UTF-8" standalone="no"?>
<!-- Created with Inkscape (http://www.inkscape.org/) -->

<svg
   width="159.54224mm"
   height="55.815434mm"
   viewBox="0 0 159.54224 55.815434"
   version="1.1"
   id="svg1"
   xml:space="preserve"
   inkscape:version="1.4.2 (f4327f4, 2025-05-13)"
   sodipodi:docname="Logo.svg"
   xmlns:inkscape="http://www.inkscape.org/namespaces/inkscape"
   xmlns:sodipodi="http://sodipodi.sourceforge.net/DTD/sodipodi-0.dtd"
   xmlns="http://www.w3.org/2000/svg"
   xmlns:svg="http://www.w3.org/2000/svg"><sodipodi:namedview
     id="namedview1"
     pagecolor="#ffffff"
     bordercolor="#666666"
     borderopacity="1.0"
     inkscape:showpageshadow="2"
     inkscape:pageopacity="0.0"
     inkscape:pagecheckerboard="0"
     inkscape:deskcolor="#d1d1d1"
     inkscape:document-units="mm"
     showguides="true"
     inkscape:zoom="2.8284271"
     inkscape:cx="220.08699"
     inkscape:cy="72.124892"
     inkscape:window-width="3440"
     inkscape:window-height="1334"
     inkscape:window-x="-11"
     inkscape:window-y="-11"
     inkscape:window-maximized="1"
     inkscape:current-layer="layer1"><sodipodi:guide
       position="-32.112324,297.22409"
       orientation="1,0"
       id="guide49"
       inkscape:locked="false" /><sodipodi:guide
       position="3.995789,297.00001"
       orientation="0,-1"
       id="guide50"
       inkscape:locked="false" /><sodipodi:guide
       position="23.194587,241.28505"
       orientation="0,-1"
       id="guide51"
       inkscape:locked="false" /><sodipodi:guide
       position="54.717732,276.92497"
       orientation="1,0"
       id="guide52"
       inkscape:locked="false" /><sodipodi:guide
       position="74.247587,270.18977"
       orientation="1,0"
       id="guide1"
       inkscape:locked="false" /><sodipodi:guide
       position="97.212717,269.53496"
       orientation="1,0"
       id="guide2"
       inkscape:locked="false" /><sodipodi:guide
       position="118.16665,267.18292"
       orientation="1,0"
       id="guide3"
       inkscape:locked="false" /><sodipodi:guide
       position="140.99147,269.95591"
       orientation="1,0"
       id="guide4"
       inkscape:locked="false" /><sodipodi:guide
       position="159.51325,268.69306"
       orientation="1,0"
       id="guide5"
       inkscape:locked="false" /><sodipodi:guide
       position="0.10047599,269.09229"
       orientation="0,-1"
       id="guide6"
       inkscape:locked="false" /></sodipodi:namedview><defs
     id="defs1"><rect
       x="312.5412"
       y="231.22392"
       width="481.53735"
       height="212.48558"
       id="rect47" /><rect
       x="312.5412"
       y="231.22392"
       width="449.36636"
       height="211.07137"
       id="rect47-8" /><rect
       x="312.5412"
       y="231.22392"
       width="481.53735"
       height="212.48558"
       id="rect47-4" /><rect
       x="312.5412"
       y="231.22392"
       width="449.36636"
       height="211.07137"
       id="rect47-8-8" /></defs><g
     inkscape:label="Layer 1"
     inkscape:groupmode="layer"
     id="layer1"
     style="display:inline"
     transform="translate(-27.996373,-58.03448)"><rect
       style="display:inline;fill:#2c3941;fill-opacity:1;stroke:#2c3941;stroke-width:0.200953;stroke-dasharray:none;stroke-opacity:1;paint-order:fill markers stroke"
       id="rect46"
       width="46.188221"
       height="55.614479"
       x="28.096849"
       y="58.134956"
       ry="6.8791666" /><path
       id="path1"
       style="display:inline;fill:#ffffff;fill-opacity:1;stroke:#000000;stroke-width:0.2;paint-order:fill markers stroke"
       d="m 48.61607,71.33413 c -1.46018,0 -2.64389,1.18371 -2.643891,2.643889 l 0.0686,20.270865 c -0.01983,0.623282 -0.637448,1.010001 -1.09641,0.390967 l -4.581041,-5.78543 c -0.475274,-0.457264 -1.121222,-0.738401 -1.832833,-0.738401 -1.46018,0 -2.64389,1.183711 -2.64389,2.643891 0,0.404317 0.09076,0.787436 0.253008,1.130098 l 0.274671,0.45477 11.088139,14.295271 c 1.446798,1.64226 3.143199,2.06656 4.543502,2.09146 l 8.510048,-0.024 c 3.760436,0.13233 8.479289,-4.1074 8.401872,-8.750446 l -0.04424,-11.573618 c 0,-1.155078 -0.936376,-2.091453 -2.091454,-2.091453 -1.155078,0 -2.091453,0.936375 -2.091453,2.091453 l -0.138371,2.92002 c 0.02103,0.75124 -1.623368,0.734483 -1.620368,-0.06083 l -0.06838,-5.079108 c 0,-1.155077 -0.936376,-2.091452 -2.091453,-2.091452 -1.155077,0 -2.091453,0.936375 -2.091452,2.091452 l -0.05182,3.312198 c 0.003,0.874441 -1.449401,0.863419 -1.454401,0.01201 l -0.01855,-4.970387 c 0,-1.155078 -0.936375,-2.091453 -2.091453,-2.091453 -1.155078,0 -2.091453,0.936375 -2.091453,2.091453 l -0.127004,3.975609 c -0.09982,1.07675 -1.722164,0.852953 -1.686134,-0.01511 l 0.0601,-14.499829 C 51.25996,72.51784 50.07625,71.33413 48.61607,71.33413"
       sodipodi:nodetypes="cccccsscccccccsccccsccccsccccc" /><path
       d="m 58.212984,74.561857 a 9.544672,9.544672 0 0 0 -9.544637,-9.544637 9.544672,9.544672 0 0 0 -9.544637,9.544637 9.544672,9.544672 0 0 0 2.840654,6.793901 c 0.194624,0.118173 0.422877,0.186035 0.667142,0.186035 0.711168,0 1.287777,-0.576609 1.287777,-1.287777 0,-0.391452 -0.194848,-0.725908 -0.42478,-0.960665 -2.348533,-2.604403 -2.403525,-6.546488 -0.127124,-9.213908 2.2764,-2.66742 6.178222,-3.232657 9.118306,-1.321366 2.936158,1.908739 4.003557,5.696265 2.498556,8.856824 -0.002,0.0042 -0.0037,0.0087 -0.0057,0.01292 -0.08126,0.164343 -0.12764,0.348922 -0.12764,0.544669 0,0.6802 0.551766,1.231967 1.231966,1.231967 0.540446,0 0.999446,-0.348286 1.165303,-0.832508 0.624654,-1.288332 0.938079,-2.655008 0.964799,-4.010091 z"
       style="display:inline;fill:#ffffff;stroke:#000000;stroke-width:0.2;paint-order:fill markers stroke"
       id="path47" /><path
       style="font-size:106.209px;line-height:1.05;font-family:Milker;-inkscape-font-specification:Milker;text-align:justify;white-space:pre;fill:#2c3941;stroke:#000000;stroke-width:0.755906"
       d="M 312.64722,243.77583 V 264.699 h 21.68459 v 53.42313 H 358.9723 V 264.699 h 23.68461 v -20.92317 z m 114.49328,-1.69934 c -19.75488,0 -40.67805,10.72711 -40.67805,38.87249 0,28.25159 20.92317,38.9787 40.67805,38.9787 19.86108,0 40.78425,-10.72711 40.78425,-38.9787 0,-28.14538 -20.92317,-38.87249 -40.78425,-38.87249 z m 0,57.03423 c -7.64705,0 -16.4624,-4.24836 -16.4624,-18.16174 0,-13.80717 8.81535,-18.05553 16.4624,-18.05553 7.75325,0 16.5686,4.24836 16.5686,18.05553 0,13.91338 -8.81535,18.16174 -16.5686,18.16174 z m 95.80055,-55.33489 v 42.69602 c 0,10.40848 -7.32842,12.63887 -12.74508,12.63887 -5.31045,0 -12.63887,-2.23039 -12.63887,-12.63887 v -42.69602 h -24.64049 v 44.71399 c 0,17.41828 9.55881,31.43786 37.27936,31.43786 27.82676,0 37.38557,-14.01958 37.38557,-31.43786 v -44.71399 z m 86.4542,42.27118 c -1.91176,9.87744 -9.4526,13.06371 -16.14377,13.06371 -7.64705,0 -16.46239,-4.24836 -16.46239,-18.16174 0,-13.80717 8.81534,-18.05553 16.46239,-18.05553 5.94771,0 12.53266,2.54902 15.2941,9.98365 l 22.19768,-9.24019 c -6.58496,-15.4003 -22.4101,-21.56042 -37.49178,-21.56042 -19.75487,0 -40.67804,10.72711 -40.67804,38.87249 0,28.25159 20.92317,38.9787 40.67804,38.9787 18.69279,0 38.23524,-9.4526 40.57184,-33.88067 z m 75.67467,-42.27118 v 25.915 h -23.50809 v -25.915 h -22.64047 v 74.3463 h 22.64047 v -27.61434 h 23.50809 v 27.61434 h 22.74668 v -74.3463 z"
       id="text47"
       transform="matrix(0.26458088,0,0,0.26687253,0.09407367,-3.1544245)"
       aria-label="TOUCH&#10;"
       sodipodi:nodetypes="cccccccccsssssssssscsssccssscccsssccsssccccccccccccccc" /><path
       style="font-size:108.302px;line-height:1.05;font-family:Milker;-inkscape-font-specification:Milker;text-align:justify;letter-spacing:0px;white-space:pre;fill:#2c3941;stroke:#000000;stroke-width:0.199564"
       d="M 100.82731,94.889238 V 89.268817 H 82.813916 v 19.971043 h 6.476876 v -7.3037 H 100.0177 V 97.086054 H 89.290792 v -2.196816 z m 12.10908,-6.076901 c -5.19267,0 -10.69243,2.881535 -10.69243,10.442001 0,7.588992 5.49976,10.470532 10.69243,10.470532 5.22059,0 10.72035,-2.88154 10.72035,-10.470532 0,-7.560466 -5.49976,-10.442001 -10.72035,-10.442001 z m 0,15.320643 c -2.01006,0 -4.32722,-1.1412 -4.32722,-4.878642 0,-3.708908 2.31716,-4.85011 4.32722,-4.85011 2.03798,0 4.35514,1.141202 4.35514,4.85011 0,3.737442 -2.31716,4.878642 -4.35514,4.878642 z m 28.12988,-1.96858 c 1.47963,-1.11267 2.40091,-2.881533 2.40091,-5.563359 0,-6.019841 -4.57848,-7.332224 -10.02241,-7.332224 h -8.23568 v 19.971043 h 6.47688 v -5.30659 h 1.7588 c 0.61419,0 1.20046,-0.0285 1.78673,-0.0571 l 2.79175,5.36365 h 6.72814 z m -6.14187,-3.823023 h -3.23843 v -3.452139 h 3.23843 c 1.5913,0 2.17757,0.827372 2.17757,1.711803 0,0.884434 -0.58627,1.740336 -2.17757,1.740336 z m 21.43144,-0.427951 v 4.850114 h 3.71303 c -0.86544,0.99855 -2.09382,1.36944 -3.26635,1.36944 -2.01007,0 -4.32723,-1.1412 -4.32723,-4.878642 0,-3.708908 2.31716,-4.85011 4.32723,-4.85011 1.56338,0 3.29427,0.684722 4.02013,2.681826 l 5.83477,-2.482117 c -1.73089,-4.136858 -5.89061,-5.7916 -9.8549,-5.7916 -5.19267,0 -10.69243,2.881535 -10.69243,10.442001 0,7.588992 5.49976,10.470532 10.69243,10.470532 2.37299,0 4.69015,-0.5706 6.53271,-1.94004 l 1.17254,1.45503 h 2.54049 V 97.913426 Z m 19.10888,5.734544 v -2.19682 h 10.52239 v -4.850109 h -10.52239 v -1.711803 h 11.332 v -5.620421 h -17.80888 v 19.999573 h 18.45098 v -5.62042 z"
       id="text47-6"
       aria-label="FORGE"
       sodipodi:nodetypes="cccccccccccsssssssssscssccccsccccsccssscccsssccssscccccccccccccccccc" /></g></svg>
