<?xml version="1.0" encoding="UTF-8" standalone="no"?>
<!-- Created with Inkscape (http://www.inkscape.org/) -->

<svg
   width="158.77124mm"
   height="15.536277mm"
   viewBox="0 0 158.77124 15.536277"
   version="1.1"
   id="svg1"
   xml:space="preserve"
   inkscape:version="1.4.2 (f4327f4, 2025-05-13)"
   sodipodi:docname="NodeCore4.svg"
   xmlns:inkscape="http://www.inkscape.org/namespaces/inkscape"
   xmlns:sodipodi="http://sodipodi.sourceforge.net/DTD/sodipodi-0.dtd"
   xmlns="http://www.w3.org/2000/svg"
   xmlns:svg="http://www.w3.org/2000/svg"><sodipodi:namedview
     id="namedview1"
     pagecolor="#ffffff"
     bordercolor="#666666"
     borderopacity="1.0"
     inkscape:showpageshadow="2"
     inkscape:pageopacity="0.0"
     inkscape:pagecheckerboard="0"
     inkscape:deskcolor="#d1d1d1"
     inkscape:document-units="mm"
     inkscape:zoom="1.9456229"
     inkscape:cx="255.70217"
     inkscape:cy="-63.218828"
     inkscape:window-width="3440"
     inkscape:window-height="1334"
     inkscape:window-x="-11"
     inkscape:window-y="-11"
     inkscape:window-maximized="1"
     inkscape:current-layer="layer1" /><defs
     id="defs1"><rect
       x="27.621035"
       y="311.82693"
       width="640.97766"
       height="98.089302"
       id="rect1" /><rect
       x="312.5412"
       y="231.22392"
       width="481.53735"
       height="212.48558"
       id="rect47" /><rect
       x="312.5412"
       y="231.22392"
       width="449.36636"
       height="211.07137"
       id="rect47-8" /><rect
       x="312.5412"
       y="231.22392"
       width="481.53735"
       height="212.48558"
       id="rect47-4" /><rect
       x="312.5412"
       y="231.22392"
       width="449.36636"
       height="211.07137"
       id="rect47-8-8" /></defs><g
     inkscape:label="Layer 1"
     inkscape:groupmode="layer"
     id="layer1"
     transform="translate(-8.1547266,-86.762226)"><path
       style="font-size:80px;line-height:1.25;font-family:Milker;-inkscape-font-specification:Milker;text-align:justify;white-space:pre;fill:#2c3941"
       d="m 68.101094,329.28015 v 29.52 l -18.72,-29.44 v -0.08 h -18.56 v 56 h 18.56 v -29.36 l 18.72,29.36 h 18.56 v -56 z m 53.679946,-1.28 c -14.88,0 -30.64,8.08 -30.64,29.28 0,21.28 15.76,29.36 30.64,29.36 14.96,0 30.72,-8.08 30.72,-29.36 0,-21.2 -15.76,-29.28 -30.72,-29.28 z m 0,42.96 c -5.76,0 -12.4,-3.2 -12.4,-13.68 0,-10.4 6.64,-13.6 12.4,-13.6 5.84,0 12.48,3.2 12.48,13.6 0,10.48 -6.64,13.68 -12.48,13.68 z m 60.88003,-41.68 h -25.68 v 56 h 25.68 c 12.08,0 30.8,-4.16 30.8,-27.92 0,-23.76 -18.72,-28.08 -30.8,-28.08 z m -3.44,40.32 h -3.68 v -24.56 h 3.68 c 7.04,0 15.04,1.68 15.04,12.32 0,10.56 -8,12.24 -15.04,12.24 z m 57.27993,0 v -6.16 h 27.12 v -13.6 h -27.12 v -4.8 h 29.44 v -15.76 h -48 v 56.08 h 49.84 v -15.76 z m 109.36005,-8.48 c -1.44,7.44 -7.12,9.84 -12.16,9.84 -5.76,0 -12.4,-3.2 -12.4,-13.68 0,-10.4 6.64,-13.6 12.4,-13.6 4.48,0 9.44,1.92 11.52,7.52 l 16.72,-6.96 c -4.96,-11.6 -16.88,-16.24 -28.24,-16.24 -14.88,0 -30.64,8.08 -30.64,29.28 0,21.28 15.76,29.36 30.64,29.36 14.08,0 28.8,-7.12 30.56,-25.52 z m 50.88001,-33.12 c -14.88,0 -30.64,8.08 -30.64,29.28 0,21.28 15.76,29.36 30.64,29.36 14.96,0 30.72,-8.08 30.72,-29.36 0,-21.2 -15.76,-29.28 -30.72,-29.28 z m 0,42.96 c -5.76,0 -12.4,-3.2 -12.4,-13.68 0,-10.4 6.64,-13.6 12.4,-13.6 5.84,0 12.48,3.2 12.48,13.6 0,10.48 -6.64,13.68 -12.48,13.68 z m 80.64003,-5.52 c 4.24,-3.12 6.88,-8.08 6.88,-15.6 0,-16.88 -13.12,-20.56 -28.72,-20.56 h -23.6 v 56 h 18.56 v -14.88 h 5.04 c 1.76,0 3.44,-0.08 5.12,-0.16 l 8,15.04 h 19.28 z m -17.6,-10.72 h -9.28 v -9.68 h 9.28 c 4.56,0 6.24,2.32 6.24,4.8 0,2.48 -1.68,4.88 -6.24,4.88 z m 50.16,14.88 v -6.16 h 27.12 v -13.6 h -27.12 v -4.8 h 29.44 v -15.76 h -48 v 56.08 h 49.84 v -15.76 z m 115.36006,-40.24 h -22.16 l -25.84,32.32 v 13.6 h 29.44 v 10 h 18.56 v -10 h 5.6 v -13.6 h -5.6 z m -18.56,32.32 h -15.84 l 15.84,-19.84 z"
       id="text1"
       transform="scale(0.26458333)"
       aria-label="Node Core 4" /></g></svg>
